<svg xmlns="http://www.w3.org/2000/svg" version="1.1" xlink="http://www.w3.org/1999/xlink" xmlns:svgjs="http://svgjs.com/svgjs" width="100%" height="100%" viewBox="5.989999771118164 -63.970001220703125 88.26000213623047 65.80000305175781"><g fill="#ff9900"><path d="M65.97 -41.84C65.97 -45.17 65.2 -48.32 63.68 -51.28C62.15 -54.25 59.98 -56.62 57.15 -58.4C55.98 -59.12 54.67 -59.7 53.2 -60.14C51.73 -60.59 50.2 -60.93 48.62 -61.18C47.04 -61.43 45.48 -61.59 43.92 -61.64C42.37 -61.7 40.93 -61.72 39.6 -61.72C34.38 -61.72 29.18 -61.56 24 -61.23C18.81 -60.89 13.61 -60.59 8.4 -60.31C8.07 -51.33 7.82 -42.34 7.65 -33.36C7.6 -28.31 7.4 -23.25 7.07 -18.18C6.74 -13.1 6.38 -8.01 5.99 -2.91C7.54 -2.75 9.08 -2.63 10.61 -2.58C12.13 -2.52 13.7 -2.5 15.31 -2.5C18.47 -2.5 21.63 -2.58 24.79 -2.75L24.37 -21.63C26.15 -21.74 27.94 -21.88 29.74 -22.04C31.54 -22.21 33.36 -22.35 35.19 -22.46C36.8 -18.3 38.04 -14.34 38.93 -10.56C39.82 -6.79 40.48 -2.66 40.93 1.83L65.22 1.25C61.11 -8.35 56.32 -17.72 50.83 -26.87C55.37 -27.09 59.04 -28.51 61.81 -31.11C64.58 -33.72 65.97 -37.3 65.97 -41.84ZM46.67 -43.17C46.67 -42.9 46.65 -42.43 46.63 -41.76C46.6 -41.09 46.57 -40.42 46.54 -39.72C46.52 -39.03 46.45 -38.36 46.34 -37.73C46.22 -37.09 46.09 -36.66 45.92 -36.44C45.53 -35.94 44.85 -35.53 43.88 -35.23C42.91 -34.92 41.86 -34.69 40.72 -34.52C39.58 -34.36 38.47 -34.25 37.39 -34.19C36.31 -34.13 35.49 -34.11 34.94 -34.11C33.66 -34.11 32.36 -34.16 31.03 -34.27C29.7 -34.38 28.42 -34.58 27.2 -34.86L24.96 -50.99C27.06 -51.33 29.18 -51.6 31.32 -51.83C33.46 -52.05 35.63 -52.16 37.85 -52.16C38.13 -52.16 38.61 -52.14 39.31 -52.12C40 -52.09 40.72 -52.03 41.47 -51.95C42.22 -51.87 42.92 -51.77 43.59 -51.66C44.26 -51.55 44.73 -51.38 45 -51.16C45.39 -50.83 45.7 -50.31 45.92 -49.62C46.14 -48.93 46.31 -48.18 46.42 -47.38C46.53 -46.57 46.6 -45.78 46.63 -45C46.65 -44.23 46.67 -43.62 46.67 -43.17Z M94.25 -63.97L74.87 -62.39C75.09 -58.56 75.28 -54.75 75.45 -50.95C75.62 -47.15 75.89 -43.37 76.28 -39.6L78.36 -18.63L87.51 -19.47C88.34 -23.63 89.19 -27.73 90.05 -31.78C90.91 -35.83 91.76 -39.93 92.59 -44.09C92.86 -45.53 93.1 -47.1 93.29 -48.79C93.49 -50.48 93.64 -52.21 93.75 -53.99C93.86 -55.76 93.96 -57.51 94.04 -59.23C94.13 -60.95 94.2 -62.53 94.25 -63.97ZM92.75 -6.65C92.75 -6.88 92.74 -7.08 92.71 -7.28C92.69 -7.47 92.62 -7.68 92.5 -7.9C91.89 -9.34 90.97 -10.43 89.72 -11.15C88.47 -11.87 87.07 -12.23 85.52 -12.23C84.57 -12.23 83.56 -12.08 82.48 -11.77C81.4 -11.47 80.4 -11.02 79.49 -10.44C78.57 -9.86 77.79 -9.14 77.16 -8.28C76.52 -7.42 76.2 -6.46 76.2 -5.41C76.2 -4.41 76.44 -3.52 76.91 -2.75C77.38 -1.97 77.99 -1.32 78.74 -0.79C79.49 -0.26 80.32 0.15 81.23 0.46C82.15 0.76 83.02 0.92 83.85 0.92C84.74 0.92 85.71 0.71 86.76 0.29C87.82 -0.12 88.79 -0.69 89.68 -1.41C90.56 -2.14 91.3 -2.95 91.88 -3.87C92.46 -4.78 92.75 -5.71 92.75 -6.65Z"></path></g></svg>