<svg width="80" height="80" viewBox="0 0 80 80" fill="none" xmlns="http://www.w3.org/2000/svg">
  <g>
    <path d="M12.872 73C12.168 73 11.56 72.744 11.048 72.232C10.536 71.72 10.28 71.112 10.28 70.408V8.392C10.28 7.688 10.536 7.08 11.048 6.568C11.56 6.056 12.168 5.8 12.872 5.8H41.288C50.504 5.8 57.704 7.88 62.888 12.04C68.072 16.2 70.664 21.896 70.664 29.128C70.664 33.416 69.672 37.16 67.688 40.36C65.768 43.496 63.304 46.024 60.296 47.944L72.104 69.832C72.296 70.216 72.392 70.568 72.392 70.888C72.392 71.464 72.168 71.976 71.72 72.424C71.336 72.808 70.856 73 70.28 73H50.6C49.32 73 48.36 72.68 47.72 72.04C47.08 71.4 46.664 70.856 46.472 70.408L38.216 52.072H34.28V70.408C34.28 71.112 34.024 71.72 33.512 72.232C33 72.744 32.392 73 31.688 73H12.872ZM34.28 33.832H41.288C42.76 33.832 43.848 33.352 44.552 32.392C45.32 31.368 45.704 30.216 45.704 28.936C45.704 27.656 45.352 26.472 44.648 25.384C44.008 24.232 42.888 23.656 41.288 23.656H34.28V33.832Z" fill="#FF9900"/>
  </g>
</svg>
