<svg width="333" height="80" viewBox="0 0 333 80" fill="none" xmlns="http://www.w3.org/2000/svg">
  <g>
    <path d="M236.952 74C237.656 74 238.264 73.744 238.776 73.232C239.288 72.72 239.544 72.112 239.544 71.408V60.368C239.544 59.6 239.416 58.96 239.16 58.448C238.84 57.872 238.456 57.392 238.008 57.008L218.904 40.592H236.28C236.984 40.592 237.592 40.336 238.104 39.824C238.616 39.312 238.872 38.704 238.872 38V26.672C238.872 25.968 238.616 25.36 238.104 24.848C237.592 24.336 236.984 24.08 236.28 24.08H193.848C193.144 24.08 192.536 24.336 192.024 24.848C191.512 25.36 191.256 25.968 191.256 26.672V38.768C191.256 39.344 191.384 39.856 191.64 40.304C191.832 40.752 192.152 41.168 192.6 41.552L210.84 57.488H191.832C191.128 57.488 190.52 57.744 190.008 58.256C189.496 58.768 189.24 59.376 189.24 60.08V71.408C189.24 72.112 189.496 72.72 190.008 73.232C190.52 73.744 191.128 74 191.832 74H236.952Z" fill="#FF9900"/>
    <path d="M248.912 74C248.208 74 247.6 73.744 247.088 73.232C246.576 72.72 246.32 72.112 246.32 71.408V26.672C246.32 25.968 246.576 25.36 247.088 24.848C247.6 24.336 248.208 24.08 248.912 24.08H266.096C266.8 24.08 267.408 24.336 267.92 24.848C268.432 25.36 268.688 25.968 268.688 26.672V71.408C268.688 72.112 268.432 72.72 267.92 73.232C267.408 73.744 266.8 74 266.096 74H248.912ZM249.392 18.8C248.688 18.8 248.08 18.544 247.568 18.032C247.056 17.52 246.8 16.912 246.8 16.208V4.592C246.8 3.888 247.056 3.28 247.568 2.768C248.08 2.25599 248.688 1.99999 249.392 1.99999H265.616C266.32 1.99999 266.928 2.25599 267.44 2.768C267.952 3.28 268.208 3.888 268.208 4.592V16.208C268.208 16.912 267.952 17.52 267.44 18.032C266.928 18.544 266.32 18.8 265.616 18.8H249.392ZM293.287 74.96C289.639 74.96 286.407 74.288 283.591 72.944C280.775 71.6 278.567 69.776 276.967 67.472C275.431 65.168 274.663 62.576 274.663 59.696C274.663 55.024 276.551 51.376 280.327 48.752C284.167 46.064 289.287 44.176 295.687 43.088L305.863 41.456V41.36C305.863 39.696 305.703 38.48 305.383 37.712C305.127 36.944 304.327 36.56 302.983 36.56C302.087 36.56 301.351 36.752 300.775 37.136C300.263 37.456 299.687 37.936 299.047 38.576C298.343 39.28 297.447 39.632 296.359 39.632H280.039C279.399 39.632 278.855 39.44 278.407 39.056C278.023 38.672 277.863 38.16 277.927 37.52C277.991 36.304 278.503 34.896 279.463 33.296C280.423 31.632 281.895 30.032 283.879 28.496C285.927 26.96 288.519 25.68 291.655 24.656C294.855 23.632 298.695 23.12 303.175 23.12C307.527 23.12 311.303 23.6 314.503 24.56C317.767 25.456 320.455 26.8 322.567 28.592C324.679 30.32 326.247 32.496 327.271 35.12C328.359 37.68 328.903 40.592 328.903 43.856V71.408C328.903 72.112 328.647 72.72 328.135 73.232C327.623 73.744 327.015 74 326.311 74H309.511C308.807 74 308.199 73.744 307.687 73.232C307.175 72.72 306.919 72.112 306.919 71.408V68.72C306.023 70 304.871 71.12 303.463 72.08C302.119 72.976 300.583 73.68 298.855 74.192C297.127 74.704 295.271 74.96 293.287 74.96ZM299.911 60.752C301.191 60.752 302.279 60.496 303.175 59.984C304.135 59.472 304.871 58.672 305.383 57.584C305.895 56.432 306.151 55.024 306.151 53.36V53.264L300.487 54.512C298.823 54.896 297.703 55.408 297.127 56.048C296.551 56.688 296.263 57.36 296.263 58.064C296.263 58.512 296.391 58.96 296.647 59.408C296.967 59.792 297.383 60.112 297.895 60.368C298.471 60.624 299.143 60.752 299.911 60.752Z" fill="#FF9900"/>
    <path d="M7.872 74C7.168 74 6.56 73.744 6.048 73.232C5.536 72.72 5.28 72.112 5.28 71.408V9.392C5.28 8.688 5.536 8.08 6.048 7.568C6.56 7.056 7.168 6.8 7.872 6.8H36.288C45.504 6.8 52.704 8.88 57.888 13.04C63.072 17.2 65.664 22.896 65.664 30.128C65.664 34.416 64.672 38.16 62.688 41.36C60.768 44.496 58.304 47.024 55.296 48.944L67.104 70.832C67.296 71.216 67.392 71.568 67.392 71.888C67.392 72.464 67.168 72.976 66.72 73.424C66.336 73.808 65.856 74 65.28 74H45.6C44.32 74 43.36 73.68 42.72 73.04C42.08 72.4 41.664 71.856 41.472 71.408L33.216 53.072H29.28V71.408C29.28 72.112 29.024 72.72 28.512 73.232C28 73.744 27.392 74 26.688 74H7.872ZM29.28 34.832H36.288C37.76 34.832 38.848 34.352 39.552 33.392C40.32 32.368 40.704 31.216 40.704 29.936C40.704 28.656 40.352 27.472 39.648 26.384C39.008 25.232 37.888 24.656 36.288 24.656H29.28V34.832ZM89.5373 74.96C85.8893 74.96 82.6573 74.288 79.8413 72.944C77.0253 71.6 74.8173 69.776 73.2173 67.472C71.6813 65.168 70.9133 62.576 70.9133 59.696C70.9133 55.024 72.8013 51.376 76.5773 48.752C80.4173 46.064 85.5373 44.176 91.9373 43.088L102.113 41.456V41.36C102.113 39.696 101.953 38.48 101.633 37.712C101.377 36.944 100.577 36.56 99.2333 36.56C98.3373 36.56 97.6013 36.752 97.0253 37.136C96.5133 37.456 95.9373 37.936 95.2973 38.576C94.5933 39.28 93.6973 39.632 92.6093 39.632H76.2893C75.6493 39.632 75.1053 39.44 74.6573 39.056C74.2733 38.672 74.1133 38.16 74.1773 37.52C74.2413 36.304 74.7533 34.896 75.7133 33.296C76.6733 31.632 78.1453 30.032 80.1293 28.496C82.1773 26.96 84.7693 25.68 87.9053 24.656C91.1053 23.632 94.9453 23.12 99.4253 23.12C103.777 23.12 107.553 23.6 110.753 24.56C114.017 25.456 116.705 26.8 118.817 28.592C120.929 30.32 122.497 32.496 123.521 35.12C124.609 37.68 125.153 40.592 125.153 43.856V71.408C125.153 72.112 124.897 72.72 124.385 73.232C123.873 73.744 123.265 74 122.561 74H105.761C105.057 74 104.449 73.744 103.937 73.232C103.425 72.72 103.169 72.112 103.169 71.408V68.72C102.273 70 101.121 71.12 99.7133 72.08C98.3693 72.976 96.8333 73.68 95.1053 74.192C93.3773 74.704 91.5213 74.96 89.5373 74.96ZM96.1613 60.752C97.4413 60.752 98.5293 60.496 99.4253 59.984C100.385 59.472 101.121 58.672 101.633 57.584C102.145 56.432 102.401 55.024 102.401 53.36V53.264L96.7373 54.512C95.0733 54.896 93.9533 55.408 93.3773 56.048C92.8013 56.688 92.5133 57.36 92.5133 58.064C92.5133 58.512 92.6413 58.96 92.8973 59.408C93.2173 59.792 93.6333 60.112 94.1453 60.368C94.7213 60.624 95.3933 60.752 96.1613 60.752ZM135.048 74C134.344 74 133.736 73.744 133.224 73.232C132.712 72.72 132.456 72.112 132.456 71.408V60.368C132.456 59.6 132.584 58.96 132.84 58.448C133.16 57.872 133.544 57.392 133.992 57.008L153.096 40.592H135.72C135.016 40.592 134.408 40.336 133.896 39.824C133.384 39.312 133.128 38.704 133.128 38V26.672C133.128 25.968 133.384 25.36 133.896 24.848C134.408 24.336 135.016 24.08 135.72 24.08H178.152C178.856 24.08 179.464 24.336 179.976 24.848C180.488 25.36 180.744 25.968 180.744 26.672V38.768C180.744 39.344 180.616 39.856 180.36 40.304C180.168 40.752 179.848 41.168 179.4 41.552L161.16 57.488H180.168C180.872 57.488 181.48 57.744 181.992 58.256C182.504 58.768 182.76 59.376 182.76 60.08V71.408C182.76 72.112 182.504 72.72 181.992 73.232C181.48 73.744 180.872 74 180.168 74H135.048Z" fill="#FF9900"/>
  </g>
</svg>
