<svg
    xmlns="http://www.w3.org/2000/svg"
    version="1.1"
    xlink="http://www.w3.org/1999/xlink"
    xmlns:svgjs="http://svgjs.com/svgjs"
    width="100%"
    height="100%"
    viewBox="10.34000015258789 -73.18000030517578 461.989990234375 77.19000244140625"
>
    <g fill="#ff9900">
    <path d="M32.84 -26.89L61.68 4.01L69.05 -0.13L51.33 -33.88C61.5 -39.74 66.59 -47.11 66.59 -55.99C66.59 -59.18 65.99 -62.67 64.78 -66.46C59.35 -69.82 52.11 -71.5 43.06 -71.5C37.37 -71.5 31.42 -71.01 25.21 -70.02C19.01 -69.02 14.05 -67.93 10.34 -66.72L16.42 1.42L27.02 0.39L29.87 -26.25C30.64 -26.25 31.64 -26.46 32.84 -26.89ZM46.16 -53.01C46.16 -49.31 44.8 -45.6 42.09 -41.89C39.37 -38.19 35.56 -35.21 30.64 -32.97L33.88 -63.49C35.95 -64.26 37.84 -64.65 39.57 -64.65C43.96 -61.89 46.16 -58.01 46.16 -53.01Z M90.69 0L101.16 1.55L104.78 -13.71L132.97 -16.03L140.34 1.55L149.78 0L136.08 -68.92L110.47 -70.47ZM115.13 -57.15L115.9 -57.15L130.65 -21.59L106.72 -21.85Z M222.63 1.68L233.23 0.65L240.73 -70.21L216.68 -68.66L219.78 -32.2L198.84 -32.33L202.85 -70.47L178.67 -68.92L184.74 1.42L195.35 0.39L197.93 -24.18L220.3 -26.12Z M320.04 -21.98C320.04 -34.14 317.31 -44.87 311.83 -54.18C306.36 -63.49 299.49 -69.82 291.21 -73.18C285.35 -69.22 280.22 -62.62 275.82 -53.4C271.43 -44.18 269.23 -33.7 269.23 -21.98C269.23 -16.21 269.83 -10.34 271.04 -4.4C276.64 0.26 284.51 2.56 294.64 2.52C304.77 2.48 311.6 0.43 315.13 -3.62C316.94 -5.86 318.21 -8.4 318.95 -11.25C319.68 -14.09 320.04 -17.67 320.04 -21.98ZM307.11 -26.64C307.11 -21.12 306.51 -15.6 305.3 -10.09C300.56 -8.53 295.76 -7.76 290.89 -7.76C286.02 -7.76 282.37 -8.02 279.96 -8.53C279.96 -16.46 281.9 -24.55 285.78 -32.78C289.66 -41.01 295 -48.27 301.81 -54.56C305.35 -46.81 307.11 -37.5 307.11 -26.64Z M395.61 -21.98C395.61 -34.14 392.87 -44.87 387.4 -54.18C381.92 -63.49 375.05 -69.82 366.77 -73.18C360.91 -69.22 355.78 -62.62 351.39 -53.4C346.99 -44.18 344.79 -33.7 344.79 -21.98C344.79 -16.21 345.4 -10.34 346.6 -4.4C352.21 0.26 360.07 2.56 370.2 2.52C380.33 2.48 387.16 0.43 390.69 -3.62C392.5 -5.86 393.78 -8.4 394.51 -11.25C395.24 -14.09 395.61 -17.67 395.61 -21.98ZM382.68 -26.64C382.68 -21.12 382.07 -15.6 380.87 -10.09C376.13 -8.53 371.32 -7.76 366.45 -7.76C361.58 -7.76 357.94 -8.02 355.52 -8.53C355.52 -16.46 357.46 -24.55 361.34 -32.78C365.22 -41.01 370.57 -48.27 377.38 -54.56C380.91 -46.81 382.68 -37.5 382.68 -26.64Z M418.29 -69.05L418.93 -58.06L433.67 -59.48L439.1 1.42L450.61 0.39L457.21 -61.81L472.08 -63.36L472.33 -70.47Z"></path>
    </g>
</svg>