<svg xmlns="http://www.w3.org/2000/svg" version="1.1" xlink="http://www.w3.org/1999/xlink" xmlns:svgjs="http://svgjs.com/svgjs" width="100%" height="100%" viewBox="5.039999961853027 -54.5099983215332 358.2699890136719 56.39999771118164"><g fill="#ff9900"><path d="M55.56 -35.24C55.56 -38.05 54.92 -40.7 53.64 -43.2C52.35 -45.7 50.52 -47.69 48.14 -49.19C47.16 -49.8 46.05 -50.29 44.81 -50.66C43.57 -51.03 42.29 -51.33 40.96 -51.54C39.62 -51.75 38.3 -51.87 37 -51.92C35.69 -51.97 34.47 -51.99 33.35 -51.99C28.96 -51.99 24.58 -51.85 20.21 -51.57C15.85 -51.29 11.47 -51.03 7.08 -50.8C6.8 -43.23 6.59 -35.67 6.45 -28.1C6.4 -23.85 6.24 -19.58 5.96 -15.31C5.68 -11.04 5.37 -6.75 5.04 -2.45C6.35 -2.31 7.65 -2.22 8.93 -2.17C10.22 -2.13 11.54 -2.1 12.89 -2.1C15.56 -2.1 18.22 -2.17 20.88 -2.31L20.53 -18.22C22.03 -18.31 23.53 -18.43 25.05 -18.57C26.57 -18.71 28.1 -18.83 29.64 -18.92C30.99 -15.42 32.04 -12.08 32.79 -8.9C33.54 -5.72 34.1 -2.24 34.47 1.54L54.93 1.05C51.48 -7.03 47.44 -14.92 42.81 -22.63C46.64 -22.82 49.73 -24.01 52.06 -26.21C54.4 -28.4 55.56 -31.41 55.56 -35.24ZM39.31 -36.37C39.31 -36.13 39.3 -35.74 39.27 -35.17C39.25 -34.61 39.23 -34.04 39.2 -33.46C39.18 -32.87 39.12 -32.31 39.03 -31.78C38.94 -31.24 38.82 -30.88 38.68 -30.69C38.35 -30.27 37.78 -29.93 36.96 -29.67C36.14 -29.42 35.26 -29.22 34.3 -29.08C33.34 -28.94 32.41 -28.85 31.5 -28.8C30.59 -28.75 29.9 -28.73 29.43 -28.73C28.35 -28.73 27.26 -28.78 26.14 -28.87C25.01 -28.96 23.94 -29.13 22.91 -29.36L21.02 -42.95C22.8 -43.23 24.58 -43.47 26.38 -43.65C28.18 -43.84 30.01 -43.93 31.88 -43.93C32.12 -43.93 32.52 -43.92 33.11 -43.9C33.69 -43.87 34.3 -43.83 34.93 -43.76C35.56 -43.69 36.16 -43.61 36.72 -43.51C37.28 -43.42 37.67 -43.28 37.91 -43.09C38.23 -42.81 38.49 -42.38 38.68 -41.8C38.87 -41.21 39.01 -40.58 39.1 -39.9C39.19 -39.23 39.25 -38.56 39.27 -37.91C39.3 -37.25 39.31 -36.74 39.31 -36.37Z M111.69 -31.6L111.69 -32.3L111.69 -33.39C111.69 -33.78 111.68 -34.15 111.66 -34.47C111.63 -34.8 111.6 -35.03 111.55 -35.17C111.18 -36.48 110.57 -37.71 109.73 -38.85C108.89 -40 107.91 -41.01 106.79 -41.9C105.66 -42.79 104.46 -43.54 103.18 -44.14C101.89 -44.75 100.6 -45.17 99.29 -45.4C98.03 -45.64 96.66 -45.83 95.19 -45.97C93.72 -46.11 92.23 -46.21 90.74 -46.28C89.24 -46.35 87.75 -46.4 86.26 -46.42C84.76 -46.44 83.38 -46.46 82.12 -46.46C78.62 -46.46 75.15 -46.33 71.72 -46.07C68.28 -45.81 64.86 -45.38 61.45 -44.77C61.54 -43 61.53 -41.2 61.42 -39.38C61.3 -37.56 61.15 -35.76 60.96 -33.98C63.9 -34.08 66.85 -34.18 69.79 -34.3C72.73 -34.42 75.67 -34.47 78.62 -34.47L80.65 -34.47L83.87 -34.47C85.09 -34.47 86.34 -34.44 87.62 -34.37C88.91 -34.3 90.1 -34.22 91.19 -34.12C92.29 -34.03 93.22 -33.89 93.96 -33.7C94.71 -33.52 95.15 -33.28 95.29 -33C95.34 -32.91 95.36 -32.66 95.36 -32.27L95.36 -31.53C95.36 -30.55 95.29 -29.55 95.15 -28.52L91.44 -28.52C89.71 -28.52 87.75 -28.48 85.55 -28.41C83.36 -28.34 81.06 -28.24 78.65 -28.1C76.25 -27.96 74 -27.77 71.93 -27.54C69.85 -27.3 68.06 -26.99 66.57 -26.59C65.07 -26.19 64.11 -25.72 63.69 -25.15C63.37 -24.73 63.09 -24.08 62.85 -23.19C62.62 -22.31 62.43 -21.35 62.29 -20.32C62.15 -19.29 62.06 -18.31 62.01 -17.38C61.96 -16.44 61.94 -15.7 61.94 -15.13C61.94 -13.5 62.24 -12.04 62.85 -10.76C63.46 -9.47 64.53 -8.41 66.08 -7.57C66.5 -7.33 67.34 -7.16 68.6 -7.04C69.86 -6.93 71.19 -6.83 72.59 -6.76C73.99 -6.69 75.32 -6.64 76.59 -6.62C77.85 -6.6 78.71 -6.59 79.18 -6.59C84.41 -6.59 89.62 -6.75 94.8 -7.08C99.99 -7.4 105.2 -7.8 110.43 -8.27L111.27 -19.9C111.55 -23.78 111.69 -27.68 111.69 -31.6ZM96.06 -15.13C94.99 -14.99 93.82 -14.84 92.56 -14.68C91.3 -14.52 90 -14.38 88.67 -14.26C87.34 -14.14 86.03 -14.04 84.75 -13.94C83.46 -13.85 82.26 -13.8 81.14 -13.8C80.86 -13.8 80.46 -13.82 79.95 -13.84C79.44 -13.86 78.92 -13.91 78.41 -13.98C77.89 -14.05 77.41 -14.14 76.97 -14.26C76.53 -14.38 76.21 -14.55 76.03 -14.78C75.79 -15.02 75.6 -15.39 75.46 -15.91C75.32 -16.42 75.2 -16.98 75.08 -17.59C74.96 -18.19 74.88 -18.78 74.83 -19.34C74.79 -19.9 74.76 -20.34 74.76 -20.67C74.76 -21.09 74.8 -21.5 74.87 -21.9C74.94 -22.29 75.09 -22.68 75.32 -23.05C75.51 -23.33 76.21 -23.54 77.43 -23.68C78.64 -23.82 79.98 -23.94 81.46 -24.03C82.93 -24.13 84.3 -24.19 85.59 -24.21C86.87 -24.23 87.66 -24.24 87.94 -24.24C89.29 -24.24 90.65 -24.23 92 -24.21C93.36 -24.19 94.71 -24.15 96.06 -24.1Z M166.27 -27.33L166.27 -27.61C166.27 -27.7 166.25 -27.79 166.2 -27.89C165.69 -29.99 164.69 -31.62 163.19 -32.79C161.7 -33.96 159.98 -34.81 158.04 -35.35C156.1 -35.89 154.07 -36.21 151.94 -36.33C149.82 -36.45 147.92 -36.51 146.23 -36.51L142.73 -36.51C141.52 -36.51 140.31 -36.44 139.12 -36.3C137.93 -36.16 136.77 -35.89 135.65 -35.49C134.53 -35.09 133.53 -34.52 132.64 -33.77C132.73 -36.86 132.83 -39.93 132.92 -42.99C133.01 -46.05 133.11 -49.12 133.2 -52.2L117.79 -51.22C118.21 -42.81 118.65 -34.44 119.12 -26.1C119.58 -17.76 120.08 -9.39 120.59 -0.98L130.47 -0.49C130.61 -4.32 130.95 -8.1 131.48 -11.84C132.02 -15.58 132.48 -19.34 132.85 -23.12C133.55 -23.5 134.43 -23.86 135.48 -24.21C136.53 -24.56 137.64 -24.87 138.81 -25.15C139.97 -25.44 141.12 -25.67 142.24 -25.86C143.36 -26.04 144.34 -26.14 145.18 -26.14C146.4 -26.14 147.22 -25.94 147.64 -25.54C148.06 -25.14 148.41 -24.41 148.69 -23.33C148.87 -22.68 148.98 -21.84 149 -20.81C149.03 -19.78 149.04 -18.94 149.04 -18.29C149.18 -14.92 149.25 -11.57 149.25 -8.23L149.25 1.89C151.49 1.71 153.71 1.54 155.9 1.4C158.1 1.26 160.34 1.17 162.63 1.12C163.1 -1.92 163.56 -4.92 164.03 -7.88C164.5 -10.85 164.92 -13.85 165.29 -16.89C165.53 -18.62 165.75 -20.36 165.96 -22.11C166.17 -23.86 166.27 -25.6 166.27 -27.33Z M231.86 -29.92C231.86 -30.53 231.84 -31.34 231.79 -32.37C231.74 -33.4 231.68 -34.53 231.61 -35.77C231.54 -37.01 231.45 -38.3 231.33 -39.66C231.22 -41.01 231.09 -42.3 230.95 -43.51C230.81 -44.73 230.63 -45.81 230.42 -46.77C230.21 -47.73 229.99 -48.46 229.76 -48.98C229.48 -49.59 228.78 -50.15 227.65 -50.66C226.53 -51.17 225.19 -51.64 223.63 -52.06C222.06 -52.48 220.37 -52.84 218.55 -53.15C216.72 -53.45 214.93 -53.71 213.15 -53.92C211.38 -54.13 209.73 -54.28 208.21 -54.37C206.69 -54.47 205.49 -54.51 204.6 -54.51C203.95 -54.51 202.92 -54.49 201.52 -54.44C200.12 -54.4 198.55 -54.32 196.82 -54.2C195.1 -54.08 193.27 -53.94 191.36 -53.78C189.44 -53.61 187.65 -53.43 185.96 -53.22C184.28 -53.01 182.81 -52.76 181.55 -52.48C180.29 -52.2 179.42 -51.9 178.96 -51.57C178.4 -51.2 177.88 -50.46 177.42 -49.36C176.95 -48.27 176.52 -46.97 176.12 -45.47C175.72 -43.98 175.36 -42.37 175.03 -40.64C174.71 -38.91 174.43 -37.22 174.19 -35.56C173.96 -33.9 173.77 -32.36 173.63 -30.94C173.49 -29.51 173.42 -28.35 173.42 -27.47C173.42 -25.83 173.53 -24.1 173.74 -22.28C173.95 -20.46 174.23 -18.63 174.58 -16.78C174.93 -14.94 175.36 -13.14 175.87 -11.39C176.39 -9.63 176.95 -7.99 177.56 -6.45C177.79 -5.89 178.05 -5.3 178.33 -4.69C178.61 -4.09 178.93 -3.53 179.31 -3.01C179.63 -2.55 180.44 -2.16 181.72 -1.86C183.01 -1.55 184.53 -1.3 186.28 -1.09C188.03 -0.88 189.91 -0.71 191.92 -0.6C193.93 -0.48 195.85 -0.4 197.7 -0.35C199.55 -0.3 201.19 -0.27 202.64 -0.25C204.09 -0.22 205.12 -0.21 205.72 -0.21C207.54 -0.21 209.51 -0.19 211.61 -0.14C213.71 -0.09 215.81 -0.19 217.92 -0.42C220.02 -0.65 222.04 -1.11 223.98 -1.79C225.91 -2.46 227.58 -3.5 228.99 -4.9C229.22 -5.14 229.45 -5.77 229.69 -6.8C229.92 -7.82 230.14 -9.05 230.35 -10.48C230.56 -11.9 230.75 -13.45 230.91 -15.13C231.08 -16.82 231.22 -18.42 231.33 -19.93C231.45 -21.45 231.54 -22.8 231.61 -23.96C231.68 -25.13 231.74 -25.95 231.79 -26.42C231.84 -26.98 231.86 -27.55 231.86 -28.13ZM219.32 -27.61C219.32 -27.09 219.3 -26.26 219.28 -25.12C219.26 -23.98 219.2 -22.78 219.11 -21.55C219.01 -20.31 218.87 -19.16 218.69 -18.11C218.5 -17.06 218.27 -16.37 217.99 -16.05C217.61 -15.63 216.78 -15.26 215.5 -14.96C214.21 -14.66 212.81 -14.4 211.29 -14.19C209.78 -13.98 208.33 -13.83 206.95 -13.73C205.57 -13.64 204.6 -13.59 204.04 -13.59C203.71 -13.59 203.14 -13.61 202.32 -13.63C201.51 -13.65 200.57 -13.7 199.52 -13.77C198.47 -13.84 197.38 -13.92 196.26 -14.01C195.14 -14.11 194.08 -14.24 193.08 -14.4C192.07 -14.56 191.22 -14.74 190.52 -14.92C189.82 -15.11 189.4 -15.32 189.26 -15.56C189.02 -15.88 188.85 -16.4 188.73 -17.1C188.61 -17.8 188.51 -18.54 188.42 -19.34C188.32 -20.13 188.26 -20.9 188.24 -21.65C188.22 -22.4 188.21 -22.96 188.21 -23.33C188.21 -23.75 188.23 -24.44 188.28 -25.4C188.32 -26.36 188.4 -27.36 188.52 -28.41C188.64 -29.46 188.78 -30.45 188.94 -31.36C189.1 -32.27 189.33 -32.89 189.61 -33.21C189.89 -33.63 190.63 -34 191.85 -34.3C193.06 -34.6 194.38 -34.86 195.81 -35.07C197.23 -35.28 198.59 -35.43 199.87 -35.53C201.16 -35.62 202.06 -35.67 202.57 -35.67C203.22 -35.67 204.34 -35.65 205.93 -35.63C207.52 -35.61 209.17 -35.53 210.87 -35.38C212.58 -35.24 214.14 -35.01 215.57 -34.68C216.99 -34.36 217.89 -33.91 218.27 -33.35C218.78 -32.56 219.08 -31.64 219.18 -30.59C219.27 -29.53 219.32 -28.54 219.32 -27.61Z M291.07 -27.75C291.07 -28.63 291.03 -29.79 290.96 -31.22C290.89 -32.64 290.75 -34.09 290.54 -35.56C290.33 -37.03 290.04 -38.42 289.67 -39.73C289.29 -41.04 288.8 -42.02 288.19 -42.67C287.82 -43.09 287.06 -43.45 285.92 -43.76C284.77 -44.06 283.45 -44.31 281.96 -44.49C280.46 -44.68 278.85 -44.83 277.12 -44.95C275.4 -45.07 273.73 -45.15 272.11 -45.19C270.5 -45.24 269.04 -45.28 267.73 -45.3C266.43 -45.32 265.42 -45.36 264.72 -45.4C263.93 -45.45 262.88 -45.47 261.57 -45.47C260.26 -45.47 258.85 -45.46 257.33 -45.44C255.81 -45.42 254.26 -45.37 252.67 -45.3C251.08 -45.23 249.59 -45.12 248.18 -44.98C246.78 -44.84 245.57 -44.68 244.54 -44.49C243.51 -44.31 242.81 -44.1 242.44 -43.86C241.6 -43.3 240.96 -42.31 240.51 -40.89C240.07 -39.46 239.73 -37.93 239.5 -36.3C239.26 -34.66 239.12 -33.06 239.08 -31.5C239.03 -29.93 239.01 -28.7 239.01 -27.82C239.01 -27.26 239.02 -26.44 239.04 -25.37C239.06 -24.29 239.1 -23.18 239.15 -22.04C239.19 -20.89 239.26 -19.79 239.36 -18.74C239.45 -17.69 239.57 -16.91 239.71 -16.4C239.89 -15.74 240.21 -15.05 240.65 -14.33C241.1 -13.61 241.6 -12.9 242.16 -12.23C242.72 -11.55 243.33 -10.94 243.98 -10.41C244.63 -9.87 245.29 -9.48 245.94 -9.25C246.22 -9.16 246.69 -9.09 247.34 -9.04C248 -8.99 248.7 -8.96 249.45 -8.93C250.19 -8.91 250.91 -8.9 251.58 -8.9L253.02 -8.9C253.63 -8.9 254.85 -8.92 256.7 -8.97C258.54 -9.02 260.69 -9.07 263.14 -9.14C265.6 -9.21 268.18 -9.3 270.89 -9.39C273.6 -9.48 276.11 -9.6 278.42 -9.74C280.73 -9.88 282.69 -10.02 284.31 -10.16C285.92 -10.3 286.86 -10.46 287.14 -10.65C287.7 -11.02 288.22 -11.89 288.68 -13.24C289.15 -14.6 289.55 -16.08 289.88 -17.69C290.2 -19.3 290.46 -20.86 290.65 -22.35C290.83 -23.85 290.95 -24.92 291 -25.58C291.04 -25.95 291.07 -26.31 291.07 -26.66ZM276.21 -26.28C276.21 -25.86 276.2 -25.28 276.18 -24.56C276.15 -23.84 276.1 -23.1 276 -22.35C275.91 -21.6 275.77 -20.9 275.58 -20.25C275.4 -19.6 275.14 -19.11 274.81 -18.78C274.25 -18.22 273.5 -17.77 272.57 -17.45C271.63 -17.12 270.64 -16.86 269.59 -16.68C268.54 -16.49 267.5 -16.37 266.47 -16.33C265.45 -16.28 264.56 -16.26 263.81 -16.26C263.39 -16.26 262.69 -16.29 261.71 -16.36C260.73 -16.43 259.71 -16.55 258.66 -16.71C257.61 -16.87 256.63 -17.07 255.72 -17.31C254.81 -17.54 254.19 -17.84 253.86 -18.22C253.58 -18.5 253.35 -19.15 253.16 -20.18C252.97 -21.21 252.82 -22.34 252.7 -23.58C252.59 -24.82 252.49 -25.98 252.42 -27.08C252.35 -28.18 252.32 -28.94 252.32 -29.36C252.32 -29.78 252.33 -30.33 252.35 -31.01C252.38 -31.68 252.45 -32.37 252.56 -33.07C252.68 -33.77 252.86 -34.42 253.09 -35C253.32 -35.58 253.65 -36.02 254.07 -36.3C254.3 -36.44 254.82 -36.56 255.61 -36.68C256.41 -36.8 257.26 -36.88 258.17 -36.93C259.08 -36.97 259.96 -37.01 260.8 -37.03C261.64 -37.05 262.22 -37.07 262.55 -37.07C263.16 -37.07 264.08 -37.04 265.32 -37C266.55 -36.95 267.82 -36.84 269.1 -36.68C270.39 -36.52 271.56 -36.27 272.64 -35.95C273.71 -35.62 274.44 -35.15 274.81 -34.54C275.09 -34.08 275.32 -33.48 275.51 -32.76C275.7 -32.03 275.84 -31.29 275.93 -30.52C276.03 -29.74 276.1 -28.99 276.14 -28.24C276.19 -27.49 276.21 -26.84 276.21 -26.28Z M339.84 -40.78C339.84 -42.74 339.79 -44.67 339.7 -46.56C339.6 -48.45 339.46 -50.4 339.27 -52.41C332.31 -52.6 325.38 -52.82 318.46 -53.08C311.55 -53.33 304.59 -53.53 297.58 -53.67L297.72 -43.44C297.77 -40.03 297.86 -36.6 298 -33.14C298.8 -33.1 299.58 -33.07 300.35 -33.07L302.7 -33.07C304.1 -33.07 305.49 -33.1 306.87 -33.14C308.25 -33.19 309.61 -33.24 310.97 -33.28C311.15 -30.43 311.32 -27.6 311.46 -24.77C311.6 -21.94 311.67 -19.13 311.67 -16.33C311.67 -13.52 311.63 -10.71 311.56 -7.88C311.49 -5.06 311.41 -2.22 311.32 0.63C311.88 0.63 312.45 0.64 313.03 0.67C313.62 0.69 314.21 0.7 314.82 0.7C316.5 0.7 318.18 0.67 319.87 0.6C321.55 0.53 323.23 0.44 324.91 0.35C325.14 -2.87 325.34 -6.11 325.51 -9.35C325.67 -12.6 325.75 -15.86 325.75 -19.13C325.75 -21.79 325.8 -24.45 325.89 -27.12C325.98 -29.78 326.13 -32.47 326.31 -35.17L339.84 -35.88Z M363.31 -53.88L346.98 -52.55C347.17 -49.33 347.33 -46.12 347.47 -42.92C347.61 -39.72 347.85 -36.53 348.17 -33.35L349.93 -15.7L357.63 -16.4C358.33 -19.9 359.05 -23.36 359.77 -26.77C360.49 -30.18 361.21 -33.63 361.91 -37.14C362.14 -38.35 362.34 -39.67 362.5 -41.1C362.67 -42.52 362.79 -43.98 362.89 -45.47C362.98 -46.97 363.06 -48.44 363.13 -49.89C363.2 -51.34 363.26 -52.67 363.31 -53.88ZM362.05 -5.61C362.05 -5.79 362.04 -5.97 362.01 -6.13C361.99 -6.29 361.93 -6.47 361.84 -6.66C361.32 -7.87 360.54 -8.78 359.49 -9.39C358.44 -10 357.26 -10.3 355.95 -10.3C355.16 -10.3 354.3 -10.17 353.39 -9.91C352.48 -9.66 351.64 -9.28 350.87 -8.79C350.1 -8.3 349.45 -7.7 348.91 -6.97C348.37 -6.25 348.1 -5.44 348.1 -4.55C348.1 -3.71 348.3 -2.97 348.7 -2.31C349.1 -1.66 349.61 -1.11 350.24 -0.67C350.87 -0.22 351.57 0.13 352.34 0.39C353.11 0.64 353.85 0.77 354.55 0.77C355.3 0.77 356.11 0.6 357 0.25C357.89 -0.11 358.71 -0.58 359.45 -1.19C360.2 -1.8 360.82 -2.49 361.31 -3.26C361.8 -4.03 362.05 -4.81 362.05 -5.61Z"></path></g> <rect xmlns="http://www.w3.org/2000/svg" id="SvgjsRect1020" width="42.300542075774636" height="8" fill="#ff9900" transform="translate(220, 2) scale(1) rotate(348, 21, 4)" light-content="false"/></svg>