<svg width="693" height="133" viewBox="0 0 693 133" fill="none" xmlns="http://www.w3.org/2000/svg">
<path d="M494.894 100.866L414.895 117.87L418.111 133L498.11 115.996L494.894 100.866Z" fill="#FF9900"/>
<path d="M97.6782 37.2577C97.6782 31.8247 96.4408 26.701 93.966 21.8674C91.4718 17.0337 87.9336 13.1862 83.332 10.286C81.4372 9.10658 79.291 8.15918 76.8935 7.4438C74.4961 6.72842 72.0212 6.14839 69.4497 5.74236C66.8589 5.33633 64.3067 5.10432 61.7933 5.00765C59.2604 4.91098 56.9016 4.8723 54.7361 4.8723C46.2483 4.8723 37.7797 5.14299 29.3305 5.68436C20.9007 6.22573 12.4321 6.72843 3.94425 7.17312C3.40288 21.8094 2.99686 36.4263 2.72617 51.0626C2.6295 59.2798 2.32015 67.5356 1.77878 75.7915C1.23741 84.0473 0.638041 92.3419 0 100.656C2.53283 100.926 5.04632 101.1 7.52114 101.197C10.0153 101.274 12.5675 101.332 15.1776 101.332C20.34 101.332 25.4829 101.197 30.6259 100.926L29.9492 70.1651C32.8494 69.9911 35.7496 69.7591 38.6885 69.4884C41.6273 69.2177 44.5855 68.9857 47.563 68.8117C50.1732 75.5788 52.2033 82.0365 53.6534 88.1849C55.1035 94.3333 56.1862 101.062 56.9016 108.37L96.4601 107.423C89.7897 91.8005 81.9785 76.5455 73.0266 61.6386C80.4318 61.2712 86.4062 58.9704 90.9111 54.7168C95.4354 50.4825 97.6782 44.6628 97.6782 37.2577ZM66.2595 35.0729C66.2595 35.5369 66.2402 36.291 66.1822 37.393C66.1435 38.4758 66.1049 39.5778 66.0469 40.6992C66.0082 41.84 65.8922 42.9227 65.7182 43.9475C65.5442 44.9915 65.3121 45.6876 65.0415 46.0549C64.4034 46.867 63.3013 47.5243 61.7159 48.027C60.1305 48.5104 58.429 48.8971 56.5729 49.1678C54.7168 49.4385 52.9187 49.6125 51.1592 49.7092C49.3998 49.8058 48.0657 49.8445 47.157 49.8445C45.0689 49.8445 42.9614 49.7478 40.7959 49.5738C38.6111 49.3998 36.5423 49.0711 34.5509 48.6264L30.8966 22.3507C34.3382 21.8094 37.7797 21.3453 41.26 20.9973C44.7402 20.63 48.2784 20.456 51.894 20.456C52.358 20.456 53.1314 20.4753 54.2721 20.514C55.3935 20.572 56.5729 20.6493 57.791 20.7847C59.0091 20.92 60.1692 21.0747 61.2519 21.268C62.3346 21.442 63.0887 21.7127 63.5527 22.0801C64.1714 22.6214 64.6741 23.4528 65.0415 24.5742C65.4088 25.715 65.6795 26.933 65.8535 28.2478C66.0275 29.5432 66.1435 30.8386 66.1822 32.0954C66.2402 33.3714 66.2595 34.3575 66.2595 35.0729ZM206.203 44.2955V42.9421V40.8346C206.203 40.0805 206.184 39.3652 206.145 38.7465C206.087 38.1084 206.029 37.6637 205.932 37.393C205.217 34.8602 204.038 32.4821 202.414 30.2779C200.789 28.0544 198.895 26.1017 196.729 24.3809C194.544 22.6601 192.224 21.21 189.749 20.0499C187.255 18.8705 184.761 18.0585 182.228 17.6138C179.792 17.1497 177.143 16.7824 174.301 16.5117C171.459 16.241 168.578 16.0477 165.697 15.9123C162.797 15.777 159.916 15.6803 157.035 15.6417C154.135 15.603 151.467 15.5643 149.031 15.5643C142.264 15.5643 135.555 15.8157 128.923 16.3184C122.272 16.8211 115.659 17.6525 109.066 18.8319C109.24 22.2541 109.221 25.7343 109.008 29.2532C108.776 32.7721 108.486 36.2523 108.119 39.6939C113.803 39.5005 119.507 39.3072 125.191 39.0751C130.876 38.8431 136.56 38.7465 142.264 38.7465H146.189H152.414C154.773 38.7465 157.19 38.8045 159.665 38.9398C162.159 39.0751 164.46 39.2298 166.567 39.4232C168.694 39.5972 170.492 39.8679 171.923 40.2352C173.373 40.5832 174.224 41.0473 174.494 41.5886C174.591 41.7626 174.63 42.246 174.63 43.0001V44.4308C174.63 46.3256 174.494 48.2591 174.224 50.2505H167.051C163.706 50.2505 159.916 50.3279 155.663 50.4632C151.428 50.5985 146.981 50.7919 142.322 51.0626C137.681 51.3333 133.331 51.7006 129.329 52.1453C125.307 52.6093 121.846 53.2087 118.966 53.9821C116.065 54.7555 114.209 55.6642 113.397 56.7663C112.778 57.5783 112.237 58.8351 111.773 60.5558C111.328 62.2573 110.961 64.1134 110.69 66.1049C110.42 68.0963 110.246 69.9911 110.149 71.7892C110.052 73.6067 110.014 75.0374 110.014 76.1395C110.014 79.291 110.594 82.1139 111.773 84.5887C112.952 87.0829 115.021 89.1323 118.018 90.7564C118.83 91.2205 120.454 91.5491 122.89 91.7812C125.327 91.9938 127.898 92.1872 130.605 92.3225C133.312 92.4579 135.883 92.5545 138.339 92.5932C140.775 92.6319 142.438 92.6512 143.346 92.6512C153.458 92.6512 163.532 92.3419 173.547 91.7038C183.582 91.0851 193.655 90.3117 203.767 89.403L205.391 66.9169C205.932 59.4151 206.203 51.8746 206.203 44.2955ZM175.983 76.1395C173.914 76.4102 171.652 76.7002 169.216 77.0096C166.78 77.3189 164.266 77.5896 161.695 77.8216C159.123 78.0536 156.591 78.247 154.116 78.4403C151.622 78.6143 149.301 78.711 147.136 78.711C146.595 78.711 145.821 78.6723 144.835 78.6337C143.849 78.595 142.844 78.4983 141.858 78.363C140.852 78.2276 139.924 78.0536 139.074 77.8216C138.223 77.5896 137.604 77.2609 137.256 76.8162C136.792 76.3522 136.425 75.6368 136.154 74.6314C135.883 73.6453 135.651 72.5626 135.419 71.3832C135.187 70.2231 135.033 69.0824 134.936 67.9996C134.859 66.9169 134.801 66.0662 134.801 65.4281C134.801 64.6161 134.878 63.8234 135.013 63.05C135.149 62.296 135.439 61.5419 135.883 60.8265C136.251 60.2852 137.604 59.8791 139.963 59.6084C142.302 59.3378 144.893 59.1057 147.755 58.9317C150.597 58.7384 153.246 58.6224 155.74 58.5837C158.215 58.545 159.742 58.5257 160.284 58.5257C162.894 58.5257 165.523 58.545 168.133 58.5837C170.763 58.6224 173.373 58.6997 175.983 58.7964V76.1395ZM311.731 52.5513V52.01C311.731 51.836 311.692 51.6619 311.596 51.4686C310.61 47.4083 308.676 44.2568 305.776 41.9947C302.895 39.7325 299.57 38.0891 295.819 37.045C292.068 36.0009 288.143 35.3822 284.025 35.1502C279.926 34.9182 276.252 34.8022 272.985 34.8022H266.218C263.878 34.8022 261.539 34.9375 259.238 35.2082C256.937 35.4789 254.694 36.0009 252.529 36.7743C250.363 37.5477 248.43 38.6498 246.709 40.0999C246.883 34.1255 247.076 28.1898 247.25 22.2734C247.424 16.357 247.618 10.4213 247.792 4.46628L217.997 6.36106C218.809 22.6214 219.66 38.8045 220.569 54.9295C221.458 71.0545 222.425 87.2375 223.411 103.498L242.513 104.445C242.784 97.0402 243.441 89.7317 244.466 82.5006C245.51 75.2694 246.4 67.9996 247.115 60.6912C248.468 59.9565 250.17 59.2604 252.2 58.5837C254.23 57.907 256.376 57.3076 258.638 56.7663C260.881 56.2056 263.105 55.7609 265.27 55.3935C267.436 55.0455 269.33 54.8521 270.955 54.8521C273.313 54.8521 274.899 55.2388 275.711 56.0122C276.523 56.7856 277.2 58.197 277.741 60.2852C278.089 61.5419 278.302 63.166 278.34 65.1575C278.398 67.1489 278.418 68.773 278.418 70.0298C278.688 76.5455 278.824 83.0226 278.824 89.4803V109.047C283.155 108.699 287.447 108.37 291.681 108.1C295.935 107.829 300.266 107.655 304.693 107.558C305.602 101.68 306.491 95.8801 307.4 90.1571C308.309 84.4147 309.121 78.6143 309.836 72.7366C310.3 69.3917 310.726 66.0275 311.132 62.644C311.538 59.2604 311.731 55.8962 311.731 52.5513ZM438.547 47.5437C438.547 46.3643 438.508 44.7982 438.411 42.8067C438.314 40.8153 438.198 38.6304 438.063 36.233C437.928 33.8355 437.754 31.3413 437.522 28.7118C437.309 26.1017 437.058 23.6075 436.787 21.268C436.516 18.9092 436.168 16.8211 435.762 14.9649C435.356 13.1088 434.931 11.6974 434.486 10.692C433.945 9.5126 432.591 8.42987 430.407 7.4438C428.241 6.45774 425.65 5.54901 422.634 4.73696C419.599 3.92491 416.331 3.22887 412.812 2.62949C409.274 2.04946 405.813 1.54677 402.372 1.14074C398.949 0.734714 395.759 0.444694 392.82 0.270683C389.881 0.0773371 387.561 0 385.841 0C384.584 0 382.592 0.0386685 379.885 0.135341C377.179 0.21268 374.143 0.367352 370.798 0.599367C367.473 0.831381 363.934 1.10207 360.242 1.41142C356.529 1.74011 353.068 2.08813 349.801 2.49415C346.553 2.90018 343.711 3.38355 341.274 3.92491C338.838 4.46628 337.156 5.04632 336.267 5.68436C335.184 6.39974 334.179 7.83049 333.289 9.95729C332.38 12.0648 331.549 14.5783 330.776 17.4784C330.002 20.3593 329.306 23.4722 328.668 26.817C328.049 30.1619 327.508 33.4295 327.044 36.639C326.599 39.8485 326.232 42.826 325.961 45.5716C325.691 48.3364 325.555 50.5792 325.555 52.2807C325.555 55.4515 325.768 58.7964 326.174 62.3153C326.58 65.8342 327.121 69.3724 327.798 72.9493C328.475 76.5069 329.306 79.9871 330.292 83.3706C331.298 86.7735 332.38 89.9444 333.56 92.9219C334.005 94.0046 334.507 95.1454 335.049 96.3248C335.59 97.4849 336.209 98.5676 336.943 99.573C337.562 100.462 339.128 101.216 341.603 101.796C344.097 102.396 347.036 102.879 350.42 103.285C353.803 103.691 357.438 104.02 361.324 104.233C365.211 104.465 368.923 104.619 372.5 104.716C376.077 104.813 379.247 104.871 382.051 104.909C384.854 104.967 386.846 104.987 388.006 104.987C391.525 104.987 395.334 105.025 399.394 105.122C403.454 105.219 407.515 105.025 411.594 104.581C415.654 104.136 419.56 103.247 423.311 101.932C427.042 100.636 430.271 98.6256 432.997 95.9187C433.442 95.4547 433.887 94.2366 434.351 92.2452C434.796 90.2731 435.221 87.8949 435.627 85.1301C436.033 82.3846 436.4 79.3877 436.71 76.1395C437.038 72.872 437.309 69.7784 437.522 66.8589C437.754 63.9201 437.928 61.3099 438.063 59.0671C438.198 56.8049 438.314 55.2195 438.411 54.3108C438.508 53.228 438.547 52.126 438.547 51.0046V47.5437ZM414.301 52.01C414.301 53.0154 414.262 54.6201 414.224 56.8243C414.185 59.0284 414.069 61.3486 413.895 63.7267C413.702 66.1242 413.431 68.3477 413.083 70.3778C412.716 72.4079 412.271 73.742 411.729 74.3607C410.995 75.1728 409.39 75.8881 406.915 76.4682C404.421 77.0482 401.714 77.5509 398.775 77.9569C395.856 78.363 393.052 78.653 390.384 78.8463C387.716 79.0203 385.84 79.117 384.758 79.117C384.12 79.117 383.018 79.0783 381.432 79.0397C379.866 79.001 378.049 78.9043 376.019 78.769C373.988 78.6337 371.881 78.479 369.715 78.305C367.55 78.1116 365.501 77.8603 363.567 77.5509C361.614 77.2416 359.971 76.8935 358.617 76.5455C357.264 76.1782 356.452 75.7721 356.181 75.3081C355.717 74.6894 355.389 73.684 355.157 72.3306C354.925 70.9772 354.731 69.5464 354.557 67.9996C354.364 66.4722 354.248 64.9835 354.209 63.5334C354.171 62.0833 354.151 61.0005 354.151 60.2852C354.151 59.4731 354.19 58.139 354.286 56.2829C354.364 54.4268 354.519 52.4933 354.751 50.4632C354.983 48.4331 355.253 46.5189 355.563 44.7595C355.872 43.0001 356.317 41.8013 356.858 41.1826C357.399 40.3706 358.83 39.6552 361.189 39.0751C363.528 38.4951 366.081 37.9924 368.845 37.5864C371.591 37.1804 374.22 36.8903 376.695 36.697C379.189 36.523 380.93 36.4263 381.916 36.4263C383.172 36.4263 385.338 36.465 388.412 36.5036C391.486 36.5423 394.676 36.697 397.963 36.987C401.269 37.2577 404.286 37.7024 407.051 38.3404C409.796 38.9591 411.536 39.8292 412.271 40.9119C413.257 42.4394 413.837 44.2181 414.03 46.2483C414.204 48.2977 414.301 50.2118 414.301 52.01ZM553.026 51.7393C553.026 50.0378 552.949 47.795 552.814 45.0302C552.678 42.2847 552.408 39.4812 552.002 36.639C551.596 33.7968 551.035 31.1093 550.32 28.5765C549.585 26.0437 548.637 24.1489 547.458 22.8921C546.743 22.0801 545.273 21.384 543.069 20.7847C540.846 20.2046 538.293 19.7212 535.413 19.3732C532.512 19.0059 529.4 18.7159 526.055 18.4838C522.729 18.2518 519.5 18.0971 516.368 18.0198C513.255 17.9231 510.432 17.8458 507.9 17.8071C505.386 17.7685 503.433 17.6911 502.08 17.6138C500.552 17.5171 498.522 17.4784 495.989 17.4784C493.457 17.4784 490.73 17.4978 487.792 17.5364C484.853 17.5751 481.856 17.6718 478.782 17.8071C475.708 17.9425 472.827 18.1551 470.1 18.4258C467.394 18.6965 465.054 19.0059 463.063 19.3732C461.071 19.7212 459.718 20.1273 459.002 20.5913C457.378 21.674 456.141 23.5882 455.271 26.3337C454.42 29.0985 453.763 32.0567 453.318 35.2082C452.854 38.3791 452.583 41.4726 452.506 44.4888C452.409 47.5243 452.371 49.9025 452.371 51.6039C452.371 52.6867 452.39 54.2721 452.429 56.3409C452.467 58.429 452.545 60.5752 452.641 62.7793C452.719 65.0028 452.854 67.1296 453.047 69.1597C453.221 71.1898 453.453 72.698 453.724 73.684C454.072 74.9601 454.691 76.2942 455.542 77.6863C456.412 79.0784 457.378 80.4511 458.461 81.7465C459.544 83.0613 460.723 84.2407 461.98 85.2654C463.237 86.3095 464.513 87.0635 465.77 87.5082C466.311 87.6822 467.22 87.8176 468.476 87.9142C469.753 88.0109 471.106 88.0689 472.556 88.1269C473.987 88.1656 475.379 88.1849 476.674 88.1849H479.458C480.638 88.1849 482.997 88.1463 486.574 88.0496C490.131 87.9529 494.288 87.8562 499.025 87.7209C503.781 87.5856 508.77 87.4115 514.009 87.2375C519.249 87.0635 524.102 86.8315 528.568 86.5608C533.034 86.2901 536.824 86.0195 539.956 85.7488C543.069 85.4781 544.887 85.1687 545.428 84.8014C546.511 84.086 547.516 82.4039 548.405 79.7937C549.314 77.1642 550.088 74.3027 550.726 71.1898C551.344 68.077 551.847 65.0608 552.214 62.1799C552.562 59.2798 552.794 57.211 552.891 55.9349C552.968 55.2195 553.026 54.5235 553.026 53.8467V51.7393ZM524.295 54.5815C524.295 55.3935 524.276 56.5149 524.237 57.907C524.179 59.2991 524.083 60.7298 523.889 62.1799C523.715 63.63 523.445 64.9835 523.077 66.2402C522.729 67.4969 522.226 68.4443 521.588 69.0824C520.506 70.1651 519.056 71.0352 517.258 71.6539C515.44 72.2919 513.526 72.7946 511.496 73.1426C509.466 73.51 507.455 73.742 505.463 73.8194C503.491 73.916 501.771 73.9547 500.32 73.9547C499.508 73.9547 498.155 73.8967 496.26 73.7613C494.365 73.626 492.393 73.394 490.363 73.0846C488.333 72.7753 486.438 72.3886 484.679 71.9246C482.919 71.4799 481.721 70.8998 481.083 70.1651C480.541 69.6238 480.096 68.367 479.729 66.3755C479.362 64.3841 479.072 62.1993 478.84 59.8018C478.627 57.4043 478.434 55.1615 478.298 53.0347C478.163 50.9079 478.105 49.4385 478.105 48.6264C478.105 47.8144 478.124 46.751 478.163 45.4362C478.221 44.1408 478.356 42.8067 478.569 41.4533C478.801 40.0999 479.149 38.8431 479.594 37.7217C480.038 36.6003 480.677 35.7496 481.489 35.2082C481.933 34.9375 482.939 34.7055 484.466 34.4735C486.013 34.2415 487.656 34.0868 489.416 33.9902C491.175 33.9128 492.877 33.8355 494.501 33.7968C496.125 33.7581 497.246 33.7195 497.884 33.7195C499.064 33.7195 500.842 33.7775 503.24 33.8548C505.618 33.9515 508.074 34.1642 510.548 34.4735C513.043 34.7829 515.305 35.2662 517.393 35.8849C519.462 36.523 520.873 37.4317 521.588 38.6111C522.13 39.5005 522.575 40.6606 522.942 42.0527C523.309 43.4641 523.58 44.8948 523.754 46.3836C523.947 47.8917 524.083 49.3418 524.16 50.7919C524.257 52.242 524.295 53.4987 524.295 54.5815ZM647.321 26.5464C647.321 22.7568 647.224 19.0252 647.05 15.371C646.857 11.7167 646.586 7.9465 646.219 4.06025C632.762 3.6929 619.363 3.26753 605.984 2.76484C592.624 2.28147 579.167 1.89479 565.613 1.6241L565.884 21.4034C565.981 27.9964 566.155 34.6282 566.425 41.318C567.972 41.3953 569.48 41.4533 570.969 41.4533H575.513C578.219 41.4533 580.907 41.3953 583.575 41.318C586.243 41.2213 588.873 41.1246 591.502 41.0473C591.85 46.5576 592.179 52.0293 592.45 57.501C592.72 62.9727 592.856 68.4057 592.856 73.8194C592.856 79.2524 592.778 84.6854 592.643 90.1571C592.508 95.6094 592.353 101.1 592.179 106.611C593.262 106.611 594.364 106.63 595.485 106.688C596.626 106.727 597.767 106.746 598.946 106.746C602.194 106.746 605.442 106.688 608.71 106.553C611.958 106.417 615.206 106.243 618.455 106.069C618.899 99.8437 619.286 93.5793 619.615 87.3149C619.924 81.0311 620.079 74.7281 620.079 68.4057C620.079 63.2627 620.175 58.1197 620.349 52.9574C620.523 47.8144 620.813 42.6134 621.161 37.393L647.321 36.0203V26.5464ZM692.699 1.21807L661.126 3.78957C661.493 10.0153 661.803 16.2217 662.073 22.4088C662.344 28.5958 662.808 34.7635 663.427 40.9119L666.83 75.0374L681.717 73.684C683.071 66.9169 684.463 60.2272 685.855 53.6341C687.247 47.041 688.639 40.3706 689.992 33.5841C690.437 31.2446 690.824 28.6925 691.133 25.9276C691.462 23.1821 691.694 20.3593 691.887 17.4784C692.061 14.5783 692.216 11.7361 692.351 8.93256C692.487 6.12905 692.603 3.55755 692.699 1.21807ZM690.263 94.546C690.263 94.198 690.244 93.85 690.186 93.5406C690.147 93.2312 690.031 92.8832 689.857 92.5159C688.852 90.1764 687.344 88.4169 685.313 87.2375C683.283 86.0581 681.002 85.4781 678.469 85.4781C676.942 85.4781 675.279 85.7294 673.519 86.2321C671.76 86.7155 670.136 87.4502 668.647 88.3976C667.158 89.345 665.902 90.5051 664.858 91.9165C663.813 93.3086 663.291 94.8747 663.291 96.5955C663.291 98.2196 663.678 99.6503 664.452 100.926C665.225 102.183 666.211 103.247 667.429 104.097C668.647 104.967 670 105.644 671.489 106.147C672.978 106.63 674.409 106.881 675.762 106.881C677.212 106.881 678.778 106.553 680.499 105.876C682.22 105.18 683.805 104.271 685.236 103.092C686.686 101.912 687.885 100.578 688.832 99.0896C689.78 97.6009 690.263 96.0928 690.263 94.546Z" fill="#FF9900"/>
</svg>
